<svg xmlns="http://www.w3.org/2000/svg" width="110" height="32" xmlns:v="https://vecta.io/nano"><path d="M96 28h14v3H96zM15.74 2.944C12.023.686 8.917.837 8.264.904 2.586.96.47 5.574.187 7.932c-.024.14-.615 3.447 1.553 5.926 1.477 1.688 4.647 2.604 7.46 3.4 1.174.337 2.75.8 3.25 1.092.33.742-.012 2.08-.86 4.66-1.216 3.706.3 6.145.465 6.4l1.207 1.454L30 17.614V14.07c-3-2.098-11.027-9.165-14.26-11.127zm-1.44 22.83a5.83 5.83 0 0 1 .307-1.761c.94-2.87 1.754-5.347.484-7.432-.653-1.072-2.093-1.525-5.028-2.37-2.153-.618-5.1-1.465-5.96-2.447-1.15-1.314-.85-3.27-.834-3.366.02-.176.57-4.317 4.973-4.318l.213-.015c.04-.005.162-.015.356-.015.718 0 2.646.157 5.038 1.6 2.72 1.65 9.763 7.563 12.82 10.162L14.3 25.775z" fill="#d5ffff"/><path d="M36.256 26.664c-1.392-1.344-2.088-3.2-2.088-5.545v-5.4c0-2.352.696-4.2 2.088-5.544s3.288-2.016 5.688-2.016c2.28 0 4.116.612 5.508 1.836S49.576 12.9 49.648 15h-3.24c-.072-1.248-.5-2.22-1.278-2.916s-1.842-1.044-3.186-1.044c-1.416 0-2.526.408-3.33 1.224s-1.206 1.957-1.206 3.42v5.436c0 1.5.396 2.64 1.188 3.457s1.908 1.224 3.348 1.224c1.344 0 2.406-.348 3.186-1.044s1.206-1.668 1.278-2.916h3.24c-.072 2.112-.805 3.78-2.196 5.004s-3.23 1.836-5.508 1.836c-2.4-.001-4.297-.673-5.688-2.017zM64.74 28.32c-1.753 0-3.15-.5-4.195-1.53s-1.565-2.37-1.565-4.05V4.992h-5.94V2.04h9.18v20.7c0 .816.228 1.457.685 1.926s1.066.7 1.836.7h6.66v2.953h-6.66zm27.26 0H75.08v-2.953h7.02V11.472h-6.12V8.52h9.36v16.847H92v2.953zM83 5.1c-.72 0-1.3-.2-1.7-.576s-.63-.9-.63-1.548.216-1.175.647-1.584S82.313.78 83.01.78h.72c.696 0 1.26.204 1.692.612s.647.936.647 1.584-.215 1.165-.647 1.548-.995.576-1.7.576H83z" fill="#fff"/></svg>