<?xml version="1.0" standalone="no"?>
<!DOCTYPE svg PUBLIC "-//W3C//DTD SVG 20010904//EN"
 "http://www.w3.org/TR/2001/REC-SVG-20010904/DTD/svg10.dtd">
<svg version="1.0" xmlns="http://www.w3.org/2000/svg"
 width="700.000000pt" height="700.000000pt" viewBox="0 0 700.000000 700.000000"
 preserveAspectRatio="xMidYMid meet">
<metadata>
Created by potrace 1.11, written by Peter Selinger 2001-2013
</metadata>
<g transform="translate(0.000000,700.000000) scale(0.100000,-0.100000)"
fill="#000000" stroke="none">
<path d="M1945 6799 c-304 -17 -523 -75 -766 -201 -219 -113 -438 -305 -591
-519 -147 -204 -274 -506 -320 -757 -26 -140 -31 -455 -10 -587 40 -247 115
-444 243 -636 224 -335 603 -542 1470 -799 150 -45 379 -113 508 -151 227 -68
419 -136 454 -162 10 -7 22 -38 29 -75 23 -126 -23 -366 -147 -757 -90 -283
-115 -372 -135 -494 -62 -355 -19 -709 121 -998 29 -61 75 -126 175 -245 74
-90 141 -163 147 -162 7 1 154 113 327 250 1107 878 2869 2275 3050 2419 118
94 230 182 247 195 l33 24 -1 390 0 391 -159 118 c-196 145 -478 370 -1085
867 -1437 1175 -1797 1439 -2234 1636 -308 138 -587 216 -901 249 -144 16
-246 17 -455 4z m455 -710 c324 -55 650 -193 979 -414 482 -323 1107 -821
2568 -2045 56 -47 101 -88 100 -91 -1 -3 -60 -53 -132 -110 -71 -58 -236 -190
-365 -294 -462 -372 -647 -521 -795 -640 -82 -67 -334 -269 -560 -451 -225
-181 -507 -407 -625 -502 l-215 -173 -3 43 c-6 76 29 227 110 483 87 275 146
496 174 650 25 137 26 440 1 537 -28 112 -76 225 -129 304 -129 193 -326 284
-1113 513 -559 162 -775 236 -982 336 -72 35 -158 81 -191 104 -165 112 -264
303 -292 565 -44 407 173 857 507 1054 127 76 281 124 446 142 153 16 388 11
517 -11z"/>
</g>
</svg>
